<svg width="60" height="60" viewBox="0 0 60 60" fill="none" xmlns="http://www.w3.org/2000/svg">
<path d="M23.5335 32.4704H35.3383C35.4085 32.4698 35.4781 32.4843 35.5422 32.5128C35.6063 32.5414 35.6636 32.5833 35.7102 32.6359C35.7567 32.6884 35.7914 32.7504 35.812 32.8175C35.8326 32.8846 35.8386 32.9554 35.8295 33.025L34.7521 41.7558C34.7335 41.8734 34.6741 41.9808 34.5842 42.059C34.4944 42.1372 34.3799 42.1814 34.2609 42.1836H24.4526C24.3301 42.1842 24.2119 42.139 24.121 42.0569C24.0301 41.9749 23.9732 41.8618 23.9613 41.7399L23.0423 33.0091C23.0357 32.9407 23.0434 32.8717 23.0651 32.8065C23.0868 32.7413 23.1219 32.6814 23.1682 32.6306C23.2145 32.5799 23.271 32.5394 23.3339 32.5118C23.3968 32.4842 23.4648 32.4701 23.5335 32.4704Z" stroke="#00AB84" stroke-width="1.2" stroke-miterlimit="10" stroke-linecap="round"></path>
<path d="M18.7011 18.2571C19.842 17.8768 28.2083 15.5792 29.3017 26.0055C29.3017 26.0847 29.3809 26.0055 29.3017 26.0055C28.0657 26.3699 19.0497 28.7626 18.5743 18.4314C18.5728 18.3923 18.5845 18.3539 18.6075 18.3223C18.6305 18.2907 18.6635 18.2677 18.7011 18.2571Z" stroke="#00AB84" stroke-width="1.2" stroke-miterlimit="10" stroke-linecap="round"></path>
<path d="M18.5732 18.4313L29.3005 26.0054V32.4703" stroke="#00AB84" stroke-width="1.2" stroke-miterlimit="10" stroke-linecap="round"></path>
<path d="M41.4058 21.4579C41.1682 22.6304 39.0766 31.2662 29.5218 26.9879C29.4852 26.9736 29.4552 26.9463 29.4376 26.9112C29.4201 26.876 29.4162 26.8356 29.4267 26.7978C29.7119 25.546 32.1363 16.53 41.3266 21.2677C41.3583 21.2869 41.3831 21.3157 41.3973 21.3498C41.4116 21.384 41.4145 21.4219 41.4058 21.4579Z" stroke="#00AB84" stroke-width="1.2" stroke-miterlimit="10" stroke-linecap="round"></path>
<path d="M41.3276 21.2674L29.4277 26.7975" stroke="#00AB84" stroke-width="1.2" stroke-miterlimit="10" stroke-linecap="round"></path>
<path d="M18.2731 9.09845C23.5779 6.1207 29.8163 5.27095 35.7243 6.7215C41.6324 8.172 46.768 11.8142 50.0905 16.9102L43.9109 15.9595C43.7053 15.9322 43.4972 15.9866 43.3313 16.1111C43.1654 16.2355 43.0549 16.42 43.0235 16.625C43.0077 16.7259 43.0121 16.829 43.0362 16.9283C43.0604 17.0275 43.1039 17.1211 43.1642 17.2035C43.2245 17.286 43.3006 17.3557 43.3879 17.4087C43.4753 17.4617 43.5722 17.4969 43.6732 17.5123L51.4535 18.7166H51.58C51.766 18.7191 51.946 18.6549 52.0885 18.5357C52.231 18.4165 52.326 18.2502 52.3565 18.0669L53.529 10.271C53.545 10.1701 53.5405 10.067 53.5165 9.96775C53.492 9.8685 53.4485 9.77495 53.3885 9.6925C53.328 9.6101 53.252 9.54035 53.1645 9.48735C53.0775 9.4344 52.9805 9.39915 52.8795 9.3837C52.7795 9.368 52.677 9.37245 52.579 9.3968C52.4805 9.4211 52.388 9.4648 52.307 9.5253C52.226 9.5858 52.1575 9.6619 52.106 9.74915C52.055 9.8364 52.0215 9.933 52.008 10.0333L51.1205 15.7218C47.8313 10.8537 42.9618 7.27095 37.3354 5.5795C31.709 3.88802 25.6712 4.19163 20.2428 6.439C14.8145 8.68635 10.329 12.7395 7.5447 17.913C4.76049 23.0865 3.84848 29.0629 4.96292 34.8313C4.99348 35.0089 5.0874 35.1694 5.22725 35.2831C5.3671 35.3967 5.5434 35.4558 5.7235 35.4493C5.7751 35.4652 5.83035 35.4652 5.88195 35.4493C6.08335 35.4109 6.26135 35.2943 6.3771 35.1251C6.4929 34.9559 6.53705 34.7478 6.4999 34.5461C5.52575 29.6047 6.14 24.4818 8.25475 19.9108C10.3695 15.3398 13.8763 11.555 18.2731 9.09845Z" fill="#00AB84"></path>
<path d="M55.002 24.9598C54.962 24.7497 54.8405 24.564 54.6635 24.4436C54.4865 24.3233 54.2695 24.2781 54.059 24.318C53.849 24.358 53.6635 24.4797 53.543 24.6565C53.4225 24.8333 53.3775 25.0507 53.4175 25.2608C54.4645 30.6919 53.6 36.318 50.971 41.1842C48.3417 46.0505 44.1098 49.8572 38.9934 51.958C33.8769 54.0595 28.191 54.3255 22.9007 52.711C17.6104 51.097 13.0415 47.7022 9.96941 43.1027L16.1492 43.7366C16.3544 43.7544 16.5586 43.6916 16.7184 43.5615C16.8781 43.4313 16.9809 43.244 17.0048 43.0394C17.0158 42.9373 17.0064 42.8341 16.9772 42.7357C16.948 42.6373 16.8996 42.5456 16.8347 42.4661C16.7699 42.3865 16.6899 42.3206 16.5994 42.2721C16.509 42.2236 16.4098 42.1936 16.3076 42.1837L8.46411 41.4073C8.27221 41.4097 8.08771 41.4818 7.94491 41.61C7.80211 41.7382 7.71071 41.9139 7.68771 42.1045L6.91126 49.9321C6.89336 50.133 6.95451 50.3335 7.08171 50.49C7.20891 50.647 7.39216 50.748 7.59261 50.772H7.68771C7.87591 50.7645 8.05466 50.6875 8.18931 50.5555C8.32396 50.424 8.40496 50.247 8.41661 50.059L8.98701 44.3545C12.0749 48.8198 16.506 52.184 21.6366 53.959C26.7672 55.734 32.3301 55.8275 37.5171 54.225C42.7042 52.6225 47.2453 49.408 50.481 45.0486C53.7165 40.6891 55.4775 35.4116 55.509 29.9828C55.504 28.2959 55.334 26.6136 55.002 24.9598Z" fill="#00AB84"></path>
</svg>
