<svg width="60" height="60" viewBox="0 0 60 60" fill="none" xmlns="http://www.w3.org/2000/svg">
<path d="M40.9121 35.4949C42.2213 34.6299 43.4582 33.8121 44.2106 32.9912C44.5695 32.5984 44.9308 32.1861 45.2938 31.7728C47.0661 29.7519 49.0151 27.5291 50.9745 27.4791C51.2473 25.9191 51.6013 23.7816 51.9407 21.4104C52.0671 20.5251 52.1475 19.6898 52.2251 18.8819C52.452 16.5169 52.6313 14.649 53.8307 13.6543C54.4901 13.1079 55.3579 12.9152 56.4829 13.0649C56.8316 13.1113 57.1099 13.3899 57.1686 13.7517C58.0358 19.0883 58.0916 27.8822 57.2946 33.7727C56.8041 37.4019 54.0171 39.8059 51.3221 42.1301C48.7528 44.3462 46.326 46.44 46.326 49.2975V55.0412C46.326 55.5011 45.9686 55.8731 45.5276 55.8731H35.0846C34.6436 55.8731 34.2861 55.5011 34.2861 55.0412V43.8966C34.2861 39.8734 37.9601 37.4454 40.9121 35.4949ZM35.883 54.2087H44.7285V49.2979C44.7285 45.6561 47.5628 43.212 50.3042 40.8482C52.7651 38.7264 55.3095 36.5316 55.713 33.5411C56.4593 28.0284 56.4411 19.9185 55.6933 14.6823C55.3183 14.6949 55.0318 14.786 54.8243 14.9574C54.1523 15.5147 53.9951 17.1522 53.8131 19.0482C53.7377 19.8366 53.652 20.7315 53.5196 21.6557C53.1658 24.1279 52.7957 26.3469 52.5176 27.9326C52.6588 28.0239 52.8013 28.1299 52.9421 28.2514C53.2478 28.5135 53.6141 29.0049 53.6261 29.8562C53.6569 32.0376 51.2533 35.4227 48.9761 37.5004C48.6236 37.8221 48.2479 38.1341 47.8575 38.4585C46.4552 39.6219 44.8661 40.9416 43.6067 43.5045C43.4059 43.9133 42.9248 44.0749 42.5321 43.8656C42.1401 43.6558 41.9843 43.1541 42.1858 42.7449C43.6022 39.8631 45.4103 38.3616 46.8632 37.1565C47.2333 36.8492 47.5903 36.5533 47.9252 36.2477C50.1308 34.2354 52.0496 31.2598 52.0298 29.8815C52.0264 29.6211 51.9512 29.5569 51.927 29.5356C50.5946 28.3918 48.9023 30.1238 46.4723 32.8961C46.1016 33.3186 45.7322 33.7395 45.3653 34.1402C44.4782 35.109 43.1612 35.9794 41.7673 36.9002C39.0094 38.7229 35.8836 40.788 35.8836 43.896V54.2087H35.883Z" fill="#00AB84"></path>
<path d="M19.0881 35.4949C17.7787 34.6299 16.5419 33.8121 15.7897 32.9912C15.4306 32.5984 15.0693 32.1861 14.7063 31.7728C12.9339 29.7519 10.985 27.5291 9.02567 27.4791C8.75293 25.9191 8.39878 23.7816 8.05948 21.4104C7.93298 20.5251 7.85271 19.6898 7.77516 18.8819C7.54804 16.5169 7.36877 14.649 6.16941 13.6543C5.51006 13.1079 4.64228 12.9152 3.51716 13.0649C3.16851 13.1113 2.89026 13.3899 2.83142 13.7517C1.9642 19.0883 1.90866 27.8822 2.70548 33.7727C3.19601 37.4019 5.98298 39.8059 8.67814 42.1303C11.2473 44.3462 13.6741 46.44 13.6741 49.2975V55.0412C13.6741 55.5011 14.0316 55.8731 14.4726 55.8731H24.9156C25.3566 55.8731 25.714 55.5011 25.714 55.0412V43.8966C25.714 39.8734 22.0401 37.4454 19.0881 35.4949ZM24.1171 54.2087H15.2716V49.2981C15.2716 45.6561 12.4374 43.212 9.69602 40.8482C7.23514 38.7264 4.69069 36.5316 4.28704 33.5411C3.54081 28.0284 3.55896 19.9185 4.30684 14.6823C4.68188 14.6949 4.96838 14.786 5.17571 14.9574C5.84771 15.5147 6.00499 17.1522 6.18701 19.0482C6.26235 19.8366 6.34813 20.7315 6.48066 21.6557C6.83426 24.1279 7.20435 26.3469 7.48262 27.9326C7.34128 28.0239 7.19886 28.1299 7.05808 28.2514C6.75231 28.5135 6.38608 29.0049 6.37399 29.8562C6.34318 32.0376 8.74686 35.4227 11.0241 37.5004C11.3766 37.8221 11.7522 38.1341 12.1426 38.4585C13.5449 39.6219 15.1342 40.9416 16.3935 43.5045C16.5942 43.9133 17.0754 44.0749 17.468 43.8656C17.8601 43.6558 18.0157 43.1541 17.8144 42.7449C16.3979 39.8631 14.5897 38.3616 13.1368 37.1565C12.7668 36.8492 12.4099 36.5533 12.075 36.2477C9.86925 34.2354 7.9506 31.2598 7.9704 29.8815C7.9737 29.6211 8.04902 29.5569 8.07323 29.5356C9.40566 28.3918 11.0978 30.1238 13.5279 32.8961C13.8985 33.3186 14.268 33.7395 14.6348 34.1402C15.5218 35.109 16.8389 35.9794 18.2329 36.9002C20.9908 38.7229 24.1165 40.788 24.1165 43.896V54.2087H24.1171Z" fill="#00AB84"></path>
<path d="M23.1171 22.3864H37.6834C37.7717 22.3901 37.8583 22.4119 37.938 22.4503C38.0177 22.4887 38.0886 22.5429 38.1465 22.6095C38.2046 22.6762 38.2483 22.7539 38.2753 22.8382C38.3023 22.9224 38.3117 23.0113 38.3033 23.0992L36.8466 33.8535C36.8312 33.9986 36.7624 34.1329 36.6538 34.2302C36.5449 34.3277 36.4037 34.3811 36.2578 34.3802H24.2638C24.1097 34.3811 23.9606 34.3243 23.8461 34.2212C23.7315 34.1181 23.6593 33.9759 23.6441 33.8224L22.4972 23.0681C22.4886 22.9817 22.4981 22.8945 22.5253 22.812C22.5527 22.7293 22.5968 22.6534 22.6553 22.5892C22.7138 22.5249 22.7852 22.4737 22.8647 22.4387C22.9442 22.4038 23.0301 22.386 23.1171 22.3864Z" stroke="#00AB84" stroke-width="1.4" stroke-miterlimit="10" stroke-linecap="round"></path>
<path d="M17.1712 4.87611C18.5659 4.41124 28.9483 1.55995 30.2501 14.4217C28.7314 14.8866 17.6051 17.8309 17.0163 5.12406C17.0125 5.07165 17.0255 5.01939 17.0533 4.97481C17.0812 4.93026 17.1224 4.8957 17.1712 4.87611Z" stroke="#00AB84" stroke-width="1.4" stroke-miterlimit="10" stroke-linecap="round"></path>
<path d="M17.0156 5.09321L30.2492 14.4219V22.3869" stroke="#00AB84" stroke-width="1.4" stroke-miterlimit="10" stroke-linecap="round"></path>
<path d="M45.1864 8.84297C44.8765 10.2996 42.304 20.9609 30.5271 15.6613C30.5044 15.6297 30.4922 15.5917 30.4922 15.5528C30.4922 15.5139 30.5044 15.4759 30.5271 15.4443C30.868 13.8947 33.8432 2.76848 45.1864 8.59504C45.2055 8.63357 45.2155 8.676 45.2155 8.719C45.2155 8.76201 45.2055 8.80444 45.1864 8.84297Z" stroke="#00AB84" stroke-width="1.4" stroke-miterlimit="10" stroke-linecap="round"></path>
<path d="M45.0675 8.56435L30.4082 15.4137" stroke="#00AB84" stroke-width="1.4" stroke-miterlimit="10" stroke-linecap="round"></path>
</svg>
